<svg xmlns="http://www.w3.org/2000/svg" xmlns:xlink="http://www.w3.org/1999/xlink" width="350" height="350" viewBox="0 0 350 350"><defs><style>.a{fill:#fff;}.b{clip-path:url(#a);}.c{fill:#e5e5e5;}.d{fill:#2f2e41;}.e{fill:#64c3bf;}.f{fill:#3f3d56;}.g{fill:#cbcbcb;}</style><clipPath id="a"><rect class="a" width="350" height="350" transform="translate(690 1293)"/></clipPath></defs><g class="b" transform="translate(-690 -1293)"><g transform="translate(730.701 1293)"><path class="c" d="M565.023,263.336q0,2.983-.193,5.915a89.6,89.6,0,0,1-8.4,32.531c-.037.087-.081.168-.118.249-.225.474-.455.947-.692,1.415a88.535,88.535,0,0,1-4.768,8.415,90.046,90.046,0,0,1-73.9,41.588l.891,51.262,11.625-6.121,2.076,3.946L477.932,409.7l1.664,95.206.019,1.272-8.988.754.019-.031,2.83-153.45A89.867,89.867,0,0,1,409.9,325.793c-.567-.586-1.128-1.191-1.677-1.789-.025-.025-.044-.05-.062-.069a90.238,90.238,0,0,1-16.418-25.407c.087.1.181.193.268.293a90.159,90.159,0,0,1,42.747-116.175c.312-.156.63-.305.941-.461a90.227,90.227,0,0,1,116.892,35.486c.549.923,1.079,1.864,1.59,2.811A89.666,89.666,0,0,1,565.023,263.336Z" transform="translate(-375.062 -167.008)"/><circle class="d" cx="26.845" cy="26.845" r="26.845" transform="translate(96.751 286.449)"/><rect class="d" width="24.05" height="8.155" transform="translate(131.274 331.747)"/><ellipse class="d" cx="2.549" cy="6.796" rx="2.549" ry="6.796" transform="translate(152.945 326.31)"/><rect class="d" width="24.05" height="8.155" transform="translate(125.664 331.124)"/><ellipse class="d" cx="2.549" cy="6.796" rx="2.549" ry="6.796" transform="translate(147.335 325.687)"/><path class="e" d="M520.113,596.3c-2.168-9.708,4.761-19.517,15.476-21.909s21.158,3.537,23.326,13.245-4.934,13.288-15.648,15.68S522.281,606.005,520.113,596.3Z" transform="translate(-422.558 -307.969)"/><path class="a" d="M572.907,639.593a6.7,6.7,0,0,1-6.445-4.44.623.623,0,0,1,1.182-.4,5.623,5.623,0,0,0,7.2,3.275,5.989,5.989,0,0,0,3.474-2.959,5.131,5.131,0,0,0,.3-3.951.623.623,0,1,1,1.182-.4,6.368,6.368,0,0,1-.369,4.9,7.245,7.245,0,0,1-4.2,3.586,7.4,7.4,0,0,1-2.331.379Z" transform="translate(-438.994 -327.827)"/><path class="a" d="M588.831,649.138a5.967,5.967,0,1,1-10.625,5.434h0l-.005-.01c-1.5-2.935.572-4.757,3.507-6.255S587.334,646.2,588.831,649.138Z" transform="translate(-442.96 -333.725)"/><path class="f" d="M613.438,688.111H375.951a.623.623,0,0,1,0-1.247H613.438a.623.623,0,0,1,0,1.247Z" transform="translate(-371.755 -347.73)"/><ellipse class="d" cx="4.675" cy="14.893" rx="4.675" ry="14.893" transform="translate(105.627 321.158) rotate(-14.461)"/><path class="g" d="M614.979,592.078H604.766a.482.482,0,0,1-.323-.839l9.288-8.411h-8.581a.482.482,0,0,1,0-.963h9.831a.482.482,0,0,1,.323.839l-9.288,8.412h8.964a.482.482,0,0,1,0,.963Z" transform="translate(-452.313 -310.786)"/><path class="g" d="M635.044,569.041H624.831a.482.482,0,0,1-.323-.839l9.288-8.411h-8.581a.482.482,0,0,1,0-.963h9.831a.482.482,0,0,1,.323.839l-9.288,8.412h8.964a.482.482,0,0,1,0,.963Z" transform="translate(-459.373 -302.68)"/><path class="g" d="M626.127,543.774H615.913a.482.482,0,0,1-.323-.839l9.288-8.412H616.3a.482.482,0,1,1,0-.963h9.831a.482.482,0,0,1,.323.839l-9.288,8.412h8.964a.482.482,0,1,1,0,.963Z" transform="translate(-456.235 -293.79)"/><path class="f" d="M734.676,330.7l7.975-6.379c-6.2-.684-8.741,2.7-9.783,5.37-4.84-2.01-10.11.624-10.11.624l15.957,5.793a12.075,12.075,0,0,0-4.04-5.408Z" transform="translate(-493.999 -220.137)"/><path class="f" d="M381.732,170.1l7.975-6.379c-6.2-.684-8.741,2.7-9.783,5.37-4.84-2.01-10.11.624-10.11.624l15.957,5.793a12.075,12.075,0,0,0-4.04-5.408Z" transform="translate(-369.815 -163.629)"/><path class="f" d="M765.45,203.756l7.975-6.379c-6.2-.684-8.741,2.7-9.783,5.37-4.84-2.01-10.109.624-10.109.624l15.957,5.793a12.076,12.076,0,0,0-4.04-5.408Z" transform="translate(-504.827 -175.472)"/></g></g></svg>